# xmcd
#
# Track frame offsets:
# 150
# 13388
# 28111
# 38711
# 51655
# 65198
# 81466
# 93546
# 105168
# 118799
# 132312
# 144299
# 157297
# 167364
# 180581
# 193438
# 206866
# 219287
# 230628
# 245767
# 254827
# 268509
# 280383
# 291838
# 304663
# 315041
# 331473
# 344322
#
# Disc length: 4718 seconds
#
# Revision: 0
# Processed by: cddbd v1.4PL0 Copyright (c) Steve Scherf et al.
# Submitted via: MacMP3 Pro 5.0 (http://mp3.act2.co.jp/)
#
DISCID=bb126c1c
DTITLE=…N…д…X…^…г≈E…T…E…м…Y≈^…p≈[…V≈[≈E…t…F…C…X - м?с{в√уw…ƒ≈[…hиW
DYEAR=1900
DGENRE=
TTITLE0=лDм(TM)и®вS
TTITLE1=г?кFс»з>=
TTITLE2=г_вƒи®вS
TTITLE3=у®м]
TTITLE4=йт…j…b…|…м
TTITLE5=еOEої«√иh
TTITLE6=п†«Ќ«√…u…г≈[…X
TTITLE7=сжй∞аЌл?иу
TTITLE8=…S…м…h…в«√вS
TTITLE9=и(TM)л"лк
TTITLE10=сѕзЋи®вS
TTITLE11=у<sum>д}м<pi>н№
TTITLE12=злгі«√н®
TTITLE13=уOE«√нnп?кЄ
TTITLE14=еNу^«µ
TTITLE15=вJ«...зЅ«!=в'
TTITLE16=п†«Ќ«√аЌс{кф
TTITLE17=с'лсо'дOнn
TTITLE18=мѕзлмyз<=«?«?«?«...«µ«?
TTITLE19=мегы…в…v…\…f…B≈[
TTITLE20=кђ«ҐйRс®
TTITLE21=лhиBс»гї
TTITLE22=у?н®кlк?
TTITLE23=тQгїйqйЅвS
TTITLE24=м«й«йqв<=нO
TTITLE25=сkгAзs
TTITLE26=к÷кF«√…и…г…c
TTITLE27=м“кl«’йЈ«Ґ
EXTD=
EXTT0=
EXTT1=
EXTT2=
EXTT3=
EXTT4=
EXTT5=
EXTT6=
EXTT7=
EXTT8=
EXTT9=
EXTT10=
EXTT11=
EXTT12=
EXTT13=
EXTT14=
EXTT15=
EXTT16=
EXTT17=
EXTT18=
EXTT19=
EXTT20=
EXTT21=
EXTT22=
EXTT23=
EXTT24=
EXTT25=
EXTT26=
EXTT27=
PLAYORDER=
